name Walk6_EMG.mot
datacolumns 17
datarows 11
range 1.28000000 1.29000000
endheader
                time	            vasmed_r	            vaslat_r	            recfem_r	               gra_r	               sar_r	            tibant_r	           perlong_r	            addmag_r	           semimem_r	          bicfemlh_r	            gasmed_r	            gaslat_r	               sol_r	               tfl_r	              gmed_r	              gmax_r	
          1.28000000	         -0.00114776	          0.00000000	          0.00000000	          0.00000000	          0.04271227	          0.00000000	          0.00000000	          0.00000000	          0.00000000	          0.00000000	          0.00000000	          0.00000000	          0.00034411	          0.00000000	          0.00000000	          0.00000000	
          1.28100000	         -0.00114647	          0.00000000	          0.00000000	          0.00000000	          0.04271337	          0.00000000	          0.00000000	          0.00000000	          0.00000000	          0.00000000	          0.00000000	          0.00000000	          0.00034702	          0.00000000	          0.00000000	          0.00000000	
          1.28200000	         -0.00114144	          0.00000000	          0.00000000	          0.00000000	          0.04271769	          0.00000000	          0.00000000	          0.00000000	          0.00000000	          0.00000000	          0.00000000	          0.00000000	          0.00035965	          0.00000000	          0.00000000	          0.00000000	
          1.28300000	         -0.00112810	          0.00000000	          0.00000000	          0.00000000	          0.04272877	          0.00000000	          0.00000000	          0.00000000	          0.00000000	          0.00000000	          0.00000000	          0.00000000	          0.00039599	          0.00000000	          0.00000000	          0.00000000	
          1.28400000	         -0.00110028	          0.00000000	          0.00000000	          0.00000000	          0.04275072	          0.00000000	          0.00000000	          0.00000000	          0.00000000	          0.00000000	          0.00000000	          0.00000000	          0.00047670	          0.00000000	          0.00000000	          0.00000000	
          1.28500000	         -0.00105060	          0.00000000	          0.00000000	          0.00000000	          0.04278785	          0.00000000	          0.00000000	          0.00000000	          0.00000000	          0.00000000	          0.00000000	          0.00000000	          0.00063015	          0.00000000	          0.00000000	          0.00000000	
          1.28600000	         -0.00097122	          0.00000000	          0.00000000	          0.00000000	          0.04284513	          0.00000000	          0.00000000	          0.00000000	          0.00000000	          0.00000000	          0.00000000	          0.00000000	          0.00089510	          0.00000000	          0.00000000	          0.00000000	
          1.28700000	         -0.00085444	          0.00000000	          0.00000000	          0.00000000	          0.04292855	          0.00000000	          0.00000000	          0.00000000	          0.00000000	          0.00000000	          0.00000000	          0.00000000	          0.00131866	          0.00000000	          0.00000000	          0.00000000	
          1.28800000	         -0.00069228	          0.00000000	          0.00000000	          0.00000000	          0.04304526	          0.00000000	          0.00000000	          0.00000000	          0.00000000	          0.00000000	          0.00000000	          0.00000000	          0.00194894	          0.00000000	          0.00000000	          0.00000000	
          1.28900000	         -0.00047507	          0.00000000	          0.00000000	          0.00000000	          0.04320345	          0.00000000	          0.00000000	          0.00000000	          0.00000000	          0.00000000	          0.00000000	          0.00000000	          0.00282931	          0.00000000	          0.00000000	          0.00000000	
          1.29000000	         -0.00019117	          0.00000000	          0.00000000	          0.00000000	          0.04341200	          0.00000000	          0.00011298	          0.00000000	          0.00000000	          0.00000000	          0.00000000	          0.00000000	          0.00399769	          0.00000000	          0.00000000	          0.00000000	
